<?xml version="1.0" encoding="UTF-8"?>
<svg width="122px" height="32px" viewBox="0 0 122 32" version="1.1" xmlns="http://www.w3.org/2000/svg" xmlns:xlink="http://www.w3.org/1999/xlink">
    <!-- Generator: Sketch 52.6 (67491) - http://www.bohemiancoding.com/sketch -->
    <title>majestic</title>
    <desc>Created with Sketch.</desc>
    <g id="Page-1" stroke="none" stroke-width="1" fill="none" fill-rule="evenodd">
        <g id="majestic">
            <path d="M61.6097623,14.2366864 L61.6097623,27.1656805 L60.3174001,27.1656805 L60.3174001,16.3353057 L55.9049064,27.1656805 L54.7417805,27.1656805 L50.3108245,16.3727811 L50.3108245,27.1656805 L49,27.1656805 L49,14.2366864 L50.5323723,14.2366864 L55.3325746,25.535503 L60.0958523,14.2366864 L61.6097623,14.2366864 Z M68.6808295,16.8037475 C69.7024162,16.8037475 70.5732134,17.0723182 71.2932473,17.6094675 C72.0132813,18.1466168 72.5086818,18.8586412 72.7794638,19.7455621 L72.7794638,16.9349112 L74.0533637,16.9349112 L74.0533637,27.1656805 L72.7794638,27.1656805 L72.7794638,24.3550296 C72.5086818,25.2419505 72.0132813,25.953975 71.2932473,26.4911243 C70.5732134,27.0282736 69.7024162,27.2968442 68.6808295,27.2968442 C67.7700174,27.2968442 66.9546065,27.084486 66.2345726,26.6597633 C65.5145386,26.2350406 64.9545206,25.6260723 64.5545018,24.8328402 C64.1544829,24.0396081 63.9544765,23.1121026 63.9544765,22.0502959 C63.9544765,20.9759973 64.1544829,20.0422459 64.5545018,19.2490138 C64.9545206,18.4557817 65.5114616,17.8499363 66.2253414,17.4314596 C66.9392212,17.0129828 67.7577091,16.8037475 68.6808295,16.8037475 Z M69.0131512,17.9654832 C67.8807902,17.9654832 66.9730687,18.3308642 66.2899595,19.0616371 C65.6068504,19.79241 65.265301,20.7886196 65.265301,22.0502959 C65.265301,23.3119721 65.6068504,24.3081818 66.2899595,25.0389546 C66.9730687,25.7697275 67.8807902,26.1351085 69.0131512,26.1351085 C69.7270311,26.1351085 70.3701287,25.9664711 70.9424633,25.6291913 C71.514798,25.2919115 71.9640432,24.8141057 72.2902124,24.1957594 C72.6163817,23.5774131 72.7794638,22.8622657 72.7794638,22.0502959 C72.7794638,21.238326 72.6163817,20.5231786 72.2902124,19.9048323 C71.9640432,19.2864861 71.514798,18.8086802 70.9424633,18.4714004 C70.3701287,18.1341206 69.7270311,17.9654832 69.0131512,17.9654832 Z M77.6535154,14.7800789 C77.3704252,14.7800789 77.1396485,14.6988831 76.9611786,14.5364892 C76.7827086,14.3740952 76.693475,14.161737 76.693475,13.8994083 C76.693475,13.6245877 76.7827086,13.4059837 76.9611786,13.2435897 C77.1396485,13.0811958 77.3704252,13 77.6535154,13 C77.9366057,13 78.1643053,13.0811958 78.3366211,13.2435897 C78.508937,13.4059837 78.5950936,13.6245877 78.5950936,13.8994083 C78.5950936,14.161737 78.508937,14.3740952 78.3366211,14.5364892 C78.1643053,14.6988831 77.9366057,14.7800789 77.6535154,14.7800789 Z M74.9580172,30.8382643 L75.6595852,30.8382643 C76.1272996,30.8382643 76.468849,30.7320852 76.6842438,30.5197239 C76.8996386,30.3073625 77.0073343,29.9388586 77.0073343,29.4142012 L77.0073343,16.9349112 L78.2996965,16.9349112 L78.2996965,29.4891519 C78.2996965,31.163059 77.4627465,32 75.7888214,32 L74.9580172,32 L74.9580172,30.8382643 Z M85.5,26.2100592 C86.4108122,26.2100592 87.1739136,25.9789635 87.7893273,25.5167653 C88.4047409,25.0545671 88.7739835,24.4299842 88.8970663,23.642998 L90.2632777,23.642998 C90.0786536,24.7297885 89.567868,25.6104503 88.7309054,26.2850099 C87.8939429,26.9595694 86.8354473,27.2968442 85.5553869,27.2968442 C84.5953417,27.2968442 83.7430066,27.0876089 82.9983561,26.6691321 C82.2537056,26.2506554 81.6721484,25.64481 81.2536672,24.8515779 C80.8351859,24.0583458 80.6259484,23.1245945 80.6259484,22.0502959 C80.6259484,20.9759973 80.8351859,20.0422459 81.2536672,19.2490138 C81.6721484,18.4557817 82.2537056,17.8499363 82.9983561,17.4314596 C83.7430066,17.0129828 84.5953417,16.8037475 85.5553869,16.8037475 C86.5400488,16.8037475 87.3923839,17.0129828 88.1124178,17.4314596 C88.8324518,17.8499363 89.3801617,18.408938 89.755564,19.1084813 C90.1309663,19.8080245 90.3186646,20.5700156 90.3186646,21.3944773 C90.3186646,21.744249 90.2940485,22.0627862 90.2448154,22.3500986 L81.8998483,22.3500986 C81.9121565,23.2120359 82.0875468,23.933429 82.4260243,24.5142998 C82.7645018,25.0951706 83.2045159,25.5230098 83.7460799,25.7978304 C84.2876439,26.0726509 84.8722781,26.2100592 85.5,26.2100592 Z M85.5553869,17.8717949 C84.9030485,17.8717949 84.3061062,18.0092031 83.7645422,18.2840237 C83.2229782,18.5588442 82.7829641,18.9804377 82.4444866,19.5488166 C82.1060091,20.1171955 81.9244648,20.826097 81.8998483,21.6755424 L89.0263025,21.6755424 C89.0755356,20.8385888 88.9401466,20.1328102 88.6201315,19.5581854 C88.3001164,18.9835606 87.8693333,18.5588442 87.3277693,18.2840237 C86.7862054,18.0092031 86.1954171,17.8717949 85.5553869,17.8717949 Z M95.6911988,16.8037475 C96.7866351,16.8037475 97.6666633,17.0973015 98.3313101,17.6844181 C98.9959568,18.2715348 99.4021237,19.064755 99.549823,20.0641026 L98.3128477,20.0641026 C98.2389981,19.4020348 97.9712972,18.8555248 97.509737,18.4245562 C97.0481768,17.9935876 96.4296953,17.7781065 95.6542742,17.7781065 C94.9896274,17.7781065 94.4696107,17.943621 94.0942084,18.2746548 C93.7188061,18.6056887 93.5311077,19.0460196 93.5311077,19.5956607 C93.5311077,20.0078916 93.6511116,20.3389205 93.8911229,20.5887574 C94.1311342,20.8385943 94.4296054,21.029092 94.7865453,21.1602564 C95.1434852,21.2914208 95.6235006,21.4257061 96.226606,21.5631164 C96.9651023,21.7380022 97.5589676,21.9160083 98.0082195,22.09714 C98.4574715,22.2782718 98.8420992,22.562457 99.1621143,22.9497041 C99.4821294,23.3369513 99.6421345,23.8616009 99.6421345,24.5236686 C99.6421345,25.3356385 99.3436634,26.0008192 98.7467122,26.5192308 C98.149761,27.0376423 97.3589663,27.2968442 96.3743045,27.2968442 C95.2173269,27.2968442 94.2696041,27.0064132 93.5311077,26.4255424 C92.7926114,25.8446717 92.3556743,25.0483285 92.2202833,24.0364892 L93.4757208,24.0364892 C93.5495704,24.7110487 93.8388105,25.2606816 94.3434497,25.6854043 C94.8480888,26.110127 95.5311877,26.3224852 96.3927668,26.3224852 C97.032797,26.3224852 97.5312746,26.1538478 97.8882145,25.816568 C98.2451544,25.4792883 98.4236216,25.0420803 98.4236216,24.504931 C98.4236216,24.0677164 98.3005408,23.71795 98.0543753,23.4556213 C97.8082099,23.1932926 97.5035847,22.996549 97.1404906,22.8653846 C96.7773966,22.7342203 96.2819961,22.5936891 95.6542742,22.443787 C94.9280861,22.2689012 94.3465289,22.094018 93.9095852,21.9191321 C93.4726416,21.7442463 93.1003219,21.4725528 92.7926151,21.1040434 C92.4849083,20.735534 92.3310572,20.2327448 92.3310572,19.5956607 C92.3310572,18.7587072 92.6326053,18.0841577 93.2357107,17.5719921 C93.838816,17.0598265 94.6573039,16.8037475 95.6911988,16.8037475 Z M106.583966,26.0039448 L106.583966,27.1656805 L105.383915,27.1656805 C104.411561,27.1656805 103.685384,26.9314619 103.205362,26.4630178 C102.725339,25.9945736 102.485331,25.2044763 102.485331,24.0927022 L102.485331,18.0779093 L100.952959,18.0779093 L100.952959,16.9349112 L102.485331,16.9349112 L102.485331,14.3491124 L103.796156,14.3491124 L103.796156,16.9349112 L106.565503,16.9349112 L106.565503,18.0779093 L103.796156,18.0779093 L103.796156,24.1114398 C103.796156,24.8359668 103.925391,25.3325102 104.183864,25.6010848 C104.442338,25.8696595 104.897737,26.0039448 105.550076,26.0039448 L106.583966,26.0039448 Z M108.411735,13.8994083 C108.411735,13.6245877 108.500969,13.4059837 108.679439,13.2435897 C108.857908,13.0811958 109.088685,13 109.371775,13 C109.654866,13 109.882565,13.0811958 110.054881,13.2435897 C110.227197,13.4059837 110.313354,13.6245877 110.313354,13.8994083 C110.313354,14.161737 110.227197,14.3740952 110.054881,14.5364892 C109.882565,14.6988831 109.654866,14.7800789 109.371775,14.7800789 C109.088685,14.7800789 108.857908,14.6988831 108.679439,14.5364892 C108.500969,14.3740952 108.411735,14.161737 108.411735,13.8994083 Z M110.017956,16.9349112 L110.017956,27.1656805 L108.707132,27.1656805 L108.707132,16.9349112 L110.017956,16.9349112 Z M117.273647,16.8037475 C118.553707,16.8037475 119.61528,17.1472681 120.458397,17.8343195 C121.301513,18.521371 121.815376,19.4332619 122,20.5700197 L120.652251,20.5700197 C120.51686,19.7580499 120.141463,19.1178524 119.52605,18.6494083 C118.910636,18.1809641 118.153689,17.9467456 117.255185,17.9467456 C116.602846,17.9467456 116.002827,18.0966454 115.455109,18.3964497 C114.907391,18.696254 114.470453,19.1553224 114.144284,19.7736686 C113.818115,20.3920149 113.655033,21.1508831 113.655033,22.0502959 C113.655033,22.9497086 113.818115,23.7085768 114.144284,24.3269231 C114.470453,24.9452694 114.907391,25.4043378 115.455109,25.704142 C116.002827,26.0039463 116.602846,26.1538462 117.255185,26.1538462 C118.153689,26.1538462 118.910636,25.9196276 119.52605,25.4511834 C120.141463,24.9827393 120.51686,24.3425419 120.652251,23.530572 L122,23.530572 C121.815376,24.6673298 121.301513,25.5792208 120.458397,26.2662722 C119.61528,26.9533236 118.553707,27.2968442 117.273647,27.2968442 C116.313602,27.2968442 115.461267,27.0876089 114.716616,26.6691321 C113.971966,26.2506554 113.390408,25.64481 112.971927,24.8515779 C112.553446,24.0583458 112.344208,23.1245945 112.344208,22.0502959 C112.344208,20.9759973 112.553446,20.0422459 112.971927,19.2490138 C113.390408,18.4557817 113.971966,17.8499363 114.716616,17.4314596 C115.461267,17.0129828 116.313602,16.8037475 117.273647,16.8037475 Z" id="Majestic" fill="#474747"></path>
            <g id="Group-5">
                <rect id="Rectangle" fill="#6493FF" transform="translate(6.823354, 14.525713) rotate(12.000000) translate(-6.823354, -14.525713) " x="2.82335407" y="0.525713174" width="8" height="28" rx="3"></rect>
                <path d="M20.692404,5.62773945 L22.6486992,5.89816004 C24.2693472,6.12218379 25.3038863,7.15818531 24.9594069,8.21213419 L18.8535049,26.6464512 C18.5090256,27.7004001 16.5749522,28.3708273 14.9543042,28.1468036 L12.998009,27.876383 C11.377361,27.6523592 10.3428219,26.6163577 10.6873013,25.5624088 L17.1342261,7.13045184 C17.4787054,6.07650295 19.0717559,5.4037157 20.692404,5.62773945 Z" id="Rectangle-Copy" fill="#3155A7" transform="translate(17.823354, 16.887326) rotate(-5.000000) translate(-17.823354, -16.887326) "></path>
                <path d="M29.4097966,6.83626315 L31.3660918,7.22576131 C32.9867398,7.54843215 34.0212789,9.04062876 33.6767995,10.5586757 L30.0867434,27.0397827 C29.742264,28.5578297 28.1492135,29.5268735 26.5285655,29.2042026 L24.5722703,28.8147045 C22.9516223,28.4920336 21.9170832,26.999837 22.2615626,25.4817901 L25.8516187,9.00068307 C26.1960981,7.48263612 27.7891486,6.51359231 29.4097966,6.83626315 Z" id="Rectangle-Copy-2" fill="#6493FF" transform="translate(27.969181, 18.020233) rotate(1.000000) translate(-27.969181, -18.020233) "></path>
                <path d="M8.83289062,0.4978125 L23.0413562,4.82826151 C24.0697336,5.14168983 24.6663497,6.21202752 24.392116,7.2515433 L23.032,12.4072266 L4.47070313,6.78271484 L5.53341368,2.17992229 C5.83381206,0.878842338 7.13206675,0.0676296372 8.4331467,0.368028012 C8.56990928,0.399604284 8.70366246,0.443029804 8.83289062,0.4978125 Z" id="Path-2" fill="#6493FF"></path>
                <circle id="Oval" fill="#6493FF" cx="36.5" cy="24.5" r="3.5"></circle>
            </g>
        </g>
    </g>
</svg>