<?xml version="1.0" encoding="UTF-8"?>
<svg width="40px" height="30px" viewBox="0 0 40 30" version="1.1" xmlns="http://www.w3.org/2000/svg" xmlns:xlink="http://www.w3.org/1999/xlink">
    <!-- Generator: Sketch 52.6 (67491) - http://www.bohemiancoding.com/sketch -->
    <title>majestic_mini</title>
    <desc>Created with Sketch.</desc>
    <g id="Page-1" stroke="none" stroke-width="1" fill="none" fill-rule="evenodd">
        <g id="majestic_mini">
            <rect id="Rectangle" fill="#6493FF" transform="translate(6.823354, 14.525713) rotate(12.000000) translate(-6.823354, -14.525713) " x="2.82335407" y="0.525713174" width="8" height="28" rx="3"></rect>
            <path d="M20.692404,5.62773945 L22.6486992,5.89816004 C24.2693472,6.12218379 25.3038863,7.15818531 24.9594069,8.21213419 L18.8535049,26.6464512 C18.5090256,27.7004001 16.5749522,28.3708273 14.9543042,28.1468036 L12.998009,27.876383 C11.377361,27.6523592 10.3428219,26.6163577 10.6873013,25.5624088 L17.1342261,7.13045184 C17.4787054,6.07650295 19.0717559,5.4037157 20.692404,5.62773945 Z" id="Rectangle-Copy" fill="#3155A7" transform="translate(17.823354, 16.887326) rotate(-5.000000) translate(-17.823354, -16.887326) "></path>
            <path d="M29.4097966,6.83626315 L31.3660918,7.22576131 C32.9867398,7.54843215 34.0212789,9.04062876 33.6767995,10.5586757 L30.0867434,27.0397827 C29.742264,28.5578297 28.1492135,29.5268735 26.5285655,29.2042026 L24.5722703,28.8147045 C22.9516223,28.4920336 21.9170832,26.999837 22.2615626,25.4817901 L25.8516187,9.00068307 C26.1960981,7.48263612 27.7891486,6.51359231 29.4097966,6.83626315 Z" id="Rectangle-Copy-2" fill="#6493FF" transform="translate(27.969181, 18.020233) rotate(1.000000) translate(-27.969181, -18.020233) "></path>
            <path d="M8.83289062,0.4978125 L23.0413562,4.82826151 C24.0697336,5.14168983 24.6663497,6.21202752 24.392116,7.2515433 L23.032,12.4072266 L4.47070313,6.78271484 L5.53341368,2.17992229 C5.83381206,0.878842338 7.13206675,0.0676296372 8.4331467,0.368028012 C8.56990928,0.399604284 8.70366246,0.443029804 8.83289062,0.4978125 Z" id="Path-2" fill="#6493FF"></path>
            <circle id="Oval" fill="#6493FF" cx="36.5" cy="24.5" r="3.5"></circle>
        </g>
    </g>
</svg>